<svg id="efulogo_Image" data-name="efulogo Image" xmlns="http://www.w3.org/2000/svg" viewBox="0 0 484.02 496.48"><defs><style>.cls-1{fill:#e6c352;}</style></defs><title>efuclock</title><path class="cls-1" d="M258.23,98.93a11.5,11.5,0,0,0,11.5-11.49v-25a11.49,11.49,0,0,0-11.5-11.48h-9A11.48,11.48,0,0,0,237.77,62.4v25a11.49,11.49,0,0,0,11.49,11.49Z" transform="translate(-8.89 -6.89)"/><path class="cls-1" d="M391.57,182.77a11.48,11.48,0,0,0,3,.39,11.59,11.59,0,0,0,5.75-1.53L422,169.11a11.5,11.5,0,0,0,4.21-15.7l-4.49-7.77A11.5,11.5,0,0,0,406,141.42l-21.69,12.52a11.51,11.51,0,0,0-4.22,15.7l4.49,7.77A11.49,11.49,0,0,0,391.57,182.77Z" transform="translate(-8.89 -6.89)"/><path class="cls-1" d="M220.38,247.05h63.93L341.59,214a11.5,11.5,0,0,0,4.19-15.7l-4.49-7.77a11.5,11.5,0,0,0-15.7-4.2l-64.73,37.36-47.8-82.76a11.48,11.48,0,0,0-7-5.35,11.26,11.26,0,0,0-3-.4,11.45,11.45,0,0,0-5.74,1.55l-7.78,4.48a11.5,11.5,0,0,0-4.21,15.69l46.57,80.64a22.88,22.88,0,0,0-1.26,3.57Z" transform="translate(-8.89 -6.89)"/><path class="cls-1" d="M448.87,242.56a11.49,11.49,0,0,0-11.5-11.48h-25a11.49,11.49,0,0,0-11.49,11.48v4.49h48Z" transform="translate(-8.89 -6.89)"/><path class="cls-1" d="M164.73,120.73a11.31,11.31,0,0,0,3,.4,11.46,11.46,0,0,0,5.75-1.55l7.77-4.48a11.49,11.49,0,0,0,4.21-15.69L172.92,77.73a11.49,11.49,0,0,0-15.7-4.21L149.45,78a11.49,11.49,0,0,0-4.21,15.7l12.51,21.68A11.51,11.51,0,0,0,164.73,120.73Z" transform="translate(-8.89 -6.89)"/><path class="cls-1" d="M41.06,247.05h0C41.06,130.41,136,35.51,252.67,35.51s211.61,94.9,211.61,211.54h28.63c0-132.42-107.78-240.16-240.24-240.16S12.43,114.63,12.43,247.05H41.06Z" transform="translate(-8.89 -6.89)"/><path class="cls-1" d="M56.48,243.64v3.41h48v-3.41A11.5,11.5,0,0,0,93,232.15H68A11.49,11.49,0,0,0,56.48,243.64Z" transform="translate(-8.89 -6.89)"/><path class="cls-1" d="M356.27,79.17l-7.77-4.5a11.5,11.5,0,0,0-15.71,4.21l-12.51,21.68a11.48,11.48,0,0,0,4.21,15.69l7.77,4.48a11.35,11.35,0,0,0,5.74,1.55,11.2,11.2,0,0,0,3-.4,11.46,11.46,0,0,0,7-5.35l12.52-21.67A11.47,11.47,0,0,0,356.27,79.17Z" transform="translate(-8.89 -6.89)"/><path class="cls-1" d="M121,151.79,99.35,139.28a11.49,11.49,0,0,0-15.7,4.21l-4.49,7.76a11.49,11.49,0,0,0,4.2,15.7l21.7,12.52a11.47,11.47,0,0,0,15.69-4.22l4.49-7.76a11.5,11.5,0,0,0-4.2-15.7Z" transform="translate(-8.89 -6.89)"/><path class="cls-1" d="M203,326.24l-25.26-12.39L180.13,302l2.44-11.87,28.09-1.45a100.3,100.3,0,0,0-1.27-16.46h-61.7a40.91,40.91,0,1,1-75.81,0H39.62l-.19.92L37,285,8.9,286.43A100.19,100.19,0,0,0,16.53,326L43.15,317l6.68,10.12,6.68,10.12L37.66,358.07a100.26,100.26,0,0,0,33.41,22.61l12.39-25.25,11.89,2.44,11.88,2.44,1.44,28.08a100.27,100.27,0,0,0,39.62-7.63l-9.1-26.61,10.13-6.67,10.12-6.68,20.89,18.84A100.25,100.25,0,0,0,203,326.24Z" transform="translate(-8.89 -6.89)"/><path class="cls-1" d="M294.82,429.13l-.21-8.9,19.87-5.66a73.67,73.67,0,0,0-12-27.08L285,398.38l-6.45-6.15-6.44-6.14,10.05-18a73.6,73.6,0,0,0-27.63-10.68l-4.71,20.1-8.9.21-8.9.21L226.31,358a73.72,73.72,0,0,0-27.09,12l10.89,17.54L204,394l-6.14,6.44-18-10.05A73.74,73.74,0,0,0,169.08,418l20.12,4.71.21,8.9.21,8.9-19.87,5.65a73.67,73.67,0,0,0,12,27.08l17.55-10.88,6.45,6.14,6.44,6.15-10,18a73.79,73.79,0,0,0,27.63,10.69l4.71-20.11,8.9-.21,8.9-.21,5.66,19.86a73.46,73.46,0,0,0,27.09-12l-10.89-17.54,6.15-6.44,6.14-6.44,18,10a73.49,73.49,0,0,0,10.68-27.62L295,438Zm-24.68,12a30,30,0,1,1-17.23-38.81A30,30,0,0,1,270.14,441.16Z" transform="translate(-8.89 -6.89)"/><path class="cls-1" d="M254.6,272.19l-31,23.35a160.6,160.6,0,0,0,45.59,45.71l27.17-35.89,17.92,7.46,17.92,7.45-6.31,44.56a160.62,160.62,0,0,0,64.57.1l-6.17-44.58,17.94-7.4,17.95-7.4,27.06,36A160.45,160.45,0,0,0,492.91,296l-31.39-23.76Z" transform="translate(-8.89 -6.89)"/><path class="cls-1" d="M410,423.7l-.13-5.45L422,414.79a45,45,0,0,0-7.33-16.58L404,404.88,400,401.11l-3.94-3.76,6.15-11a45.15,45.15,0,0,0-16.92-6.54l-2.88,12.31-5.45.13-5.45.13-3.46-12.16a45.09,45.09,0,0,0-16.59,7.33l6.67,10.74-3.76,3.94-3.76,3.95L339.57,400A44.87,44.87,0,0,0,333,416.9l12.31,2.88.13,5.45.13,5.44-12.17,3.47a45.14,45.14,0,0,0,7.34,16.58l10.74-6.67,3.95,3.76,3.94,3.76-6.15,11.05a45.17,45.17,0,0,0,16.91,6.54l2.89-12.31,5.45-.13,5.45-.13,3.46,12.16A45.09,45.09,0,0,0,404,461.42l-6.67-10.74,3.76-3.95,3.76-3.94,11,6.15A45,45,0,0,0,422.44,432l-12.31-2.88Zm-15.11,7.37a18.39,18.39,0,1,1-10.55-23.76A18.38,18.38,0,0,1,394.89,431.07Z" transform="translate(-8.89 -6.89)"/></svg>