<svg id="efulogo_Image" data-name="efulogo Image" xmlns="http://www.w3.org/2000/svg" viewBox="0 0 1500.39 524.27"><defs><style>.cls-1{fill:none;}.cls-2{fill:#e7c352;}.cls-3{font-size:130px;fill:#f2f2f3;font-family:HelveticaNeue, Helvetica Neue;letter-spacing:0.03em;}</style></defs><title>efulogoMasthead</title><path class="cls-1" d="M516.35,524.51H-7.92V.24H516.35ZM246.14,490.56c4.46-.23,10.26-.36,16-.88,6.74-.6,13.5-1.28,20.17-2.42,7.26-1.24,14.47-2.87,21.62-4.65a223.67,223.67,0,0,0,42.46-15.5,237.76,237.76,0,0,0,35.62-21,240.81,240.81,0,0,0,26.87-22.28c3.63-3.49,7.09-7.18,10.42-10.95,4.17-4.72,8.29-9.49,12.14-14.46a228,228,0,0,0,21-32.61,241.39,241.39,0,0,0,15.2-34.87,244,244,0,0,0,10.48-43.38,239,239,0,0,0,2.41-30c.11-4.89-.28-9.79-.44-14.69a197.84,197.84,0,0,0-2.84-25.8,207.32,207.32,0,0,0-8.23-33.65c-2.7-7.91-5.63-15.78-9-23.4-3.56-8-7.57-15.77-11.84-23.39a175,175,0,0,0-17.57-25.95q-8.43-10.23-17.32-20A126.45,126.45,0,0,0,403.19,81c-4.32-3.83-8.68-7.64-13.23-11.18a239.24,239.24,0,0,0-66.55-36.47A240,240,0,0,0,277.36,22a226,226,0,0,0-29.83-2.37c-6.59-.09-13.2.26-19.77.74a173.7,173.7,0,0,0-18.36,2.13c-9,1.64-17.88,3.57-26.7,5.81A215.61,215.61,0,0,0,143,43.07a222.46,222.46,0,0,0-36.81,22c-6.4,4.76-12.6,9.79-18.65,15-4.31,3.71-8.29,7.81-12.25,11.9-3.5,3.61-6.8,7.41-10.11,11.2a212.61,212.61,0,0,0-16.3,21.7,235.61,235.61,0,0,0-21.09,39.32,230.52,230.52,0,0,0-10.21,29.57,217.15,217.15,0,0,0-7.12,38.94c-.56,6.94-1,13.89-1.27,20.85C9,258,9.38,262.52,9.63,267c.22,4.18.34,8.39.95,12.52,1.3,8.69,2.63,17.39,4.42,26a223.89,223.89,0,0,0,17.12,50.05,206.49,206.49,0,0,0,18.41,32q8.13,11.37,17.07,22.17c4.14,5,8.81,9.54,13.43,14.09,3.79,3.72,7.73,7.32,11.83,10.68,5.48,4.49,11,8.89,16.83,13A208.11,208.11,0,0,0,145.41,468c7.38,3.28,14.85,6.41,22.45,9.14a230.41,230.41,0,0,0,46.81,11.22A289.63,289.63,0,0,0,246.14,490.56Z" transform="translate(7.92 -0.24)"/><path class="cls-2" d="M246.14,490.56a289.63,289.63,0,0,1-31.47-2.2,230.41,230.41,0,0,1-46.81-11.22c-7.6-2.73-15.07-5.86-22.45-9.14a208.11,208.11,0,0,1-35.72-20.58c-5.78-4.08-11.35-8.48-16.83-13-4.1-3.36-8-7-11.83-10.68-4.62-4.55-9.29-9.11-13.43-14.09q-8.92-10.77-17.07-22.17a206.49,206.49,0,0,1-18.41-32A223.89,223.89,0,0,1,15,305.5c-1.79-8.6-3.12-17.3-4.42-26-.61-4.13-.73-8.34-.95-12.52-.25-4.47-.6-8.95-.46-13.41.22-7,.71-13.91,1.27-20.85a217.15,217.15,0,0,1,7.12-38.94,230.52,230.52,0,0,1,10.21-29.57A235.61,235.61,0,0,1,48.86,124.9a212.61,212.61,0,0,1,16.3-21.7c3.31-3.79,6.61-7.59,10.11-11.2,4-4.09,7.94-8.19,12.25-11.9,6-5.2,12.25-10.23,18.65-15a222.46,222.46,0,0,1,36.81-22,215.61,215.61,0,0,1,39.72-14.8c8.82-2.24,17.74-4.17,26.7-5.81a173.7,173.7,0,0,1,18.36-2.13c6.57-.48,13.18-.83,19.77-.74A226,226,0,0,1,277.36,22a238.91,238.91,0,0,1,84.2,28.88,236.39,236.39,0,0,1,28.4,19c4.55,3.54,8.91,7.35,13.23,11.18a126.45,126.45,0,0,1,10.13,9.64q8.9,9.81,17.32,20a175,175,0,0,1,17.57,25.95c4.27,7.62,8.28,15.42,11.84,23.39,3.4,7.62,6.33,15.49,9,23.4a207.32,207.32,0,0,1,8.23,33.65,197.84,197.84,0,0,1,2.84,25.8c.16,4.9.55,9.8.44,14.69a239,239,0,0,1-2.41,30,244,244,0,0,1-10.48,43.38,241.39,241.39,0,0,1-15.2,34.87,228,228,0,0,1-21,32.61c-3.85,5-8,9.74-12.14,14.46-3.33,3.77-6.79,7.46-10.42,10.95A240.81,240.81,0,0,1,382,446.09a237.76,237.76,0,0,1-35.62,21A223.67,223.67,0,0,1,304,482.61c-7.15,1.78-14.36,3.41-21.62,4.65-6.67,1.14-13.43,1.82-20.17,2.42C256.4,490.2,250.6,490.33,246.14,490.56Zm80.22-94.93c.42-.39.78-.69,1.1-1q25.56-25.55,51.12-51.07c1-1,.9-1.57,0-2.5-12.94-12.88-25.94-25.71-38.19-39.26a87.28,87.28,0,0,0-10.16-10c-9.28-7.38-20-10.7-31.89-10.6-6.19.06-12.37,0-18.56,0q-37.19,0-74.38,0c-1.37,0-1.89.43-1.82,1.76a63.52,63.52,0,0,0,.33,7.05c1.19,7.26,5.29,12.32,12.1,15.13A39.12,39.12,0,0,0,231,307.6h42.64c1.91,0,2.7,1.19,1.86,2.93a4.89,4.89,0,0,1-1.46,1.86,15.31,15.31,0,0,1-8.77,3.1q-38.75,0-77.5,0a24.49,24.49,0,0,1-17.67-7.22c-5.16-5-10.26-10-15.36-15.06-4.44-4.38-8.83-8.81-13.28-13.18a39.48,39.48,0,0,0-4.71-4.26A27.84,27.84,0,0,0,114,271.32a35.21,35.21,0,0,0-14.19,7c.3.37.52.67.76.94,2.92,3.33,5.86,6.64,8.77,10q8.52,9.72,17,19.46,5.36,6.12,10.72,12.21,7.77,8.87,15.52,17.75c3,3.4,5.88,6.86,8.91,10.21,3.92,4.32,7.64,8.89,12,12.75a34.05,34.05,0,0,0,22.94,8.88c29.42.14,58.84.05,88.26.09a50.44,50.44,0,0,1,7.17.53A34.59,34.59,0,0,1,311.64,381c4.54,4.48,9,9,13.54,13.52C325.53,394.89,325.92,395.22,326.36,395.63Zm-103-219.41.43-.15c0-.45,0-.9,0-1.35-.16-3.19-.24-6.4-.53-9.58-.59-6.65-1.09-13.32-2-19.92a85.16,85.16,0,0,0-10.06-30.47A70.89,70.89,0,0,0,193.44,94a97.48,97.48,0,0,0-21.11-12.62A170.46,170.46,0,0,0,140,71.11c-5-1.12-10-2.29-14.82-3.89s-9.24.34-10,5.26c-1.1,7-2.07,14.15-2.47,21.27a126.52,126.52,0,0,0,1.51,29,87,87,0,0,0,10.19,29.12,64.69,64.69,0,0,0,14.75,17.48,69.17,69.17,0,0,0,17.57,10.57,76.26,76.26,0,0,0,19.45,5.59c6,.78,12,1.3,17.94,2,5,.59,9.73,2.05,13.55,5.63.83.77,1.71,1.48,2.57,2.22l.36-.17c-.26-1-.45-2-.8-3-3-8.29-5.91-16.65-9.18-24.85a188.47,188.47,0,0,0-17.12-32.66,133.63,133.63,0,0,0-14.31-18.81c-4.21-4.49-8.68-8.74-13.05-13.08-.9-.9-1.88-1.71-2.83-2.57l.36-.35C183,119.72,206.41,145,223.39,176.22Zm-81.06,82.53a41.11,41.11,0,0,1,10.34,7.94q14.57,14.37,29.18,28.69a12.62,12.62,0,0,0,2.67,2.06,3.55,3.55,0,0,0,3.28.38,40.61,40.61,0,0,1-1.5-17.44c.71-5,1.95-9.87,2.82-14.83.26-1.48.83-1.84,2.28-1.83q53.55.06,107.1.07c3.7,0,7.41.5,11.12.79.76.06,1.53.17,2.7.3l-3.56-5.75c4.95-5.54,2.6-14.09-3.1-17.42A2.88,2.88,0,0,1,304.1,239,14.45,14.45,0,0,0,292,226.09a3,3,0,0,1-2.15-1.35c-5.36-7.15-12.24-11.45-21.46-11.4a3.26,3.26,0,0,1-2-.89A17.8,17.8,0,0,0,246.84,209a3.32,3.32,0,0,1-2.11,0c-6.81-2.12-13.5-2.43-20,1.08a1.51,1.51,0,0,1-1.16,0,25.16,25.16,0,0,0-15.16-2,21.49,21.49,0,0,0-12.22,5.73,4.3,4.3,0,0,1-3.33,1.37,20.32,20.32,0,0,0-15.72,6.81,2.48,2.48,0,0,1-1.78.75,23,23,0,0,0-14.3,3.57c-5,3.12-8.74,7.28-9.92,13.32a3.12,3.12,0,0,1-.81,1.37c-1.2,1.32-2.59,2.5-3.67,3.91-2,2.6-3.53,5.52-3.06,8.86C143.85,255.6,144.22,257.24,142.33,258.75Zm98.39-65.06.45.36a4.47,4.47,0,0,0,.71-.4,18.05,18.05,0,0,1,9.84-4.18c4.56-.3,9.13-.48,13.69-.49A82.17,82.17,0,0,0,285,186.67c12.46-3.07,23.35-8.76,31.85-18.61a60.15,60.15,0,0,0,11-19.06c5.12-14.05,5.87-28.59,4.74-43.32-.39-5.13-3.88-7.37-8.9-6.15-2.23.54-4.49,1-6.77,1.33-6.37.9-12.79,1.53-19.13,2.6-11.66,2-22.85,5.41-33.2,11.3a59.66,59.66,0,0,0-17.08,14.12,63.76,63.76,0,0,0-12.42,25.38c-1.5,6.1-2.51,12.33-3.68,18.51-.31,1.66-.41,3.36-.61,5l.48.25A167.88,167.88,0,0,1,260.36,147a171.41,171.41,0,0,1,35.7-23.11C269.94,141.14,253.23,165.76,240.72,193.69ZM364.48,443.45a12.59,12.59,0,0,0,8.88-3.74q26.4-26.4,52.79-52.81a12.11,12.11,0,0,0,.43-17.2q-9.66-10.06-19.76-19.72c-5-4.75-12.33-4.42-17.17.42q-26.36,26.34-52.7,52.7a12.25,12.25,0,0,0-.07,17.82q9.44,9.49,18.93,18.94A12.41,12.41,0,0,0,364.48,443.45Z" transform="translate(7.92 -0.24)"/><path class="cls-1" d="M326.36,395.63c-.44-.41-.83-.74-1.18-1.1-4.52-4.51-9-9-13.54-13.52a34.59,34.59,0,0,0-19.86-9.86,50.44,50.44,0,0,0-7.17-.53c-29.42,0-58.84.05-88.26-.09a34.05,34.05,0,0,1-22.94-8.88c-4.33-3.86-8-8.43-12-12.75-3-3.35-5.94-6.81-8.91-10.21q-7.75-8.88-15.52-17.75-5.35-6.1-10.72-12.21-8.51-9.72-17-19.46c-2.91-3.33-5.85-6.64-8.77-10-.24-.27-.46-.57-.76-.94a35.21,35.21,0,0,1,14.19-7,27.84,27.84,0,0,1,22.84,4.46A39.48,39.48,0,0,1,141.5,280c4.45,4.37,8.84,8.8,13.28,13.18,5.1,5,10.2,10.08,15.36,15.06a24.49,24.49,0,0,0,17.67,7.22q38.76-.06,77.5,0a15.31,15.31,0,0,0,8.77-3.1,4.89,4.89,0,0,0,1.46-1.86c.84-1.74,0-2.93-1.86-2.93H231A39.12,39.12,0,0,1,216,305.11c-6.81-2.81-10.91-7.87-12.1-15.13a63.52,63.52,0,0,1-.33-7.05c-.07-1.33.45-1.77,1.82-1.76q37.19,0,74.38,0c6.19,0,12.37.05,18.56,0,11.85-.1,22.61,3.22,31.89,10.6a87.28,87.28,0,0,1,10.16,10c12.25,13.55,25.25,26.38,38.19,39.26.94.93,1,1.5,0,2.5q-25.59,25.5-51.12,51.07C327.14,394.94,326.78,395.24,326.36,395.63Z" transform="translate(7.92 -0.24)"/><path class="cls-1" d="M223.39,176.22c-17-31.22-40.39-56.5-69.72-76.35l-.36.35c.95.86,1.93,1.67,2.83,2.57,4.37,4.34,8.84,8.59,13.05,13.08a133.63,133.63,0,0,1,14.31,18.81,188.47,188.47,0,0,1,17.12,32.66c3.27,8.2,6.15,16.56,9.18,24.85.35,1,.54,2,.8,3l-.36.17c-.86-.74-1.74-1.45-2.57-2.22-3.82-3.58-8.51-5-13.55-5.63-6-.69-12-1.21-17.94-2a76.26,76.26,0,0,1-19.45-5.59,69.17,69.17,0,0,1-17.57-10.57,64.69,64.69,0,0,1-14.75-17.48,87,87,0,0,1-10.19-29.12,126.52,126.52,0,0,1-1.51-29c.4-7.12,1.37-14.22,2.47-21.27.76-4.92,5.24-6.83,10-5.26S135,70,140,71.11a170.46,170.46,0,0,1,32.33,10.25A97.48,97.48,0,0,1,193.44,94a70.89,70.89,0,0,1,17.76,20.77,85.16,85.16,0,0,1,10.06,30.47c.93,6.6,1.43,13.27,2,19.92.29,3.18.37,6.39.53,9.58,0,.45,0,.9,0,1.35Z" transform="translate(7.92 -0.24)"/><path class="cls-1" d="M142.33,258.75c1.89-1.51,1.52-3.15,1.26-5-.47-3.34,1.09-6.26,3.06-8.86,1.08-1.41,2.47-2.59,3.67-3.91a3.12,3.12,0,0,0,.81-1.37c1.18-6,4.9-10.2,9.92-13.32a23,23,0,0,1,14.3-3.57,2.48,2.48,0,0,0,1.78-.75,20.32,20.32,0,0,1,15.72-6.81,4.3,4.3,0,0,0,3.33-1.37A21.49,21.49,0,0,1,208.4,208a25.16,25.16,0,0,1,15.16,2,1.51,1.51,0,0,0,1.16,0c6.51-3.51,13.2-3.2,20-1.08a3.32,3.32,0,0,0,2.11,0,17.8,17.8,0,0,1,19.54,3.43,3.26,3.26,0,0,0,2,.89c9.22-.05,16.1,4.25,21.46,11.4a3,3,0,0,0,2.15,1.35A14.45,14.45,0,0,1,304.1,239a2.88,2.88,0,0,0,1.56,2.67c5.7,3.33,8,11.88,3.1,17.42l3.56,5.75c-1.17-.13-1.94-.24-2.7-.3-3.71-.29-7.42-.79-11.12-.79q-53.55-.09-107.1-.07c-1.45,0-2,.35-2.28,1.83-.87,5-2.11,9.85-2.82,14.83a40.61,40.61,0,0,0,1.5,17.44,3.55,3.55,0,0,1-3.28-.38,12.62,12.62,0,0,1-2.67-2.06q-14.61-14.31-29.18-28.69A41.11,41.11,0,0,0,142.33,258.75Zm87.8-31.06a4.78,4.78,0,1,0,4.79-4.71A4.86,4.86,0,0,0,230.13,227.69Zm23.79,15.13a4,4,0,1,0,0,7.92,4.15,4.15,0,0,0,4-4A4.11,4.11,0,0,0,253.92,242.82Zm-51.59-5.66a3.52,3.52,0,0,0,3.72-3.52,3.85,3.85,0,0,0-3.68-3.82,3.91,3.91,0,0,0-3.67,3.72A3.55,3.55,0,0,0,202.33,237.16Zm-28.85,20.35a12,12,0,0,0,0,1.5c.12.86.53,1.28,1.46.83a4,4,0,0,0,1.8-4.72,3.08,3.08,0,0,0-4.07-2,1.08,1.08,0,0,1-.55.07c-1.52-.42-2.19.6-2.65,1.7a3.24,3.24,0,0,0,.3,3.5l1.76-.44Zm40.83-5.88c2.78-.06,4.1-1,4.07-3a3.72,3.72,0,0,0-3.67-3.52,3.87,3.87,0,0,0-3.54,3.68A2.91,2.91,0,0,0,214.31,251.63Zm66.84,0A2.74,2.74,0,0,0,284,248.9a3,3,0,0,0-2.82-2.94,3.1,3.1,0,0,0-2.82,2.85A3,3,0,0,0,281.15,251.61Z" transform="translate(7.92 -0.24)"/><path class="cls-1" d="M240.72,193.69c12.51-27.93,29.22-52.55,55.34-69.81A171.41,171.41,0,0,0,260.36,147a167.88,167.88,0,0,0-29.1,31.08l-.48-.25c.2-1.69.3-3.39.61-5,1.17-6.18,2.18-12.41,3.68-18.51a63.76,63.76,0,0,1,12.42-25.38,59.66,59.66,0,0,1,17.08-14.12c10.35-5.89,21.54-9.34,33.2-11.3,6.34-1.07,12.76-1.7,19.13-2.6,2.28-.33,4.54-.79,6.77-1.33,5-1.22,8.51,1,8.9,6.15,1.13,14.73.38,29.27-4.74,43.32a60.15,60.15,0,0,1-11,19.06c-8.5,9.85-19.39,15.54-31.85,18.61A82.17,82.17,0,0,1,265.41,189c-4.56,0-9.13.19-13.69.49a18.05,18.05,0,0,0-9.84,4.18,4.47,4.47,0,0,1-.71.4Z" transform="translate(7.92 -0.24)"/><path class="cls-1" d="M364.48,443.45a12.41,12.41,0,0,1-8.67-3.59q-9.46-9.47-18.93-18.94A12.25,12.25,0,0,1,337,403.1q26.34-26.36,52.7-52.7c4.84-4.84,12.2-5.17,17.17-.42q10.1,9.64,19.76,19.72a12.11,12.11,0,0,1-.43,17.2q-26.37,26.43-52.79,52.81A12.59,12.59,0,0,1,364.48,443.45Z" transform="translate(7.92 -0.24)"/><path class="cls-2" d="M230.13,227.69a4.84,4.84,0,0,1,4.79-4.71,4.78,4.78,0,1,1-4.79,4.71Z" transform="translate(7.92 -0.24)"/><path class="cls-2" d="M253.92,242.82a4.11,4.11,0,0,1,4,3.94,4,4,0,1,1-7.93,0A4.1,4.1,0,0,1,253.92,242.82Z" transform="translate(7.92 -0.24)"/><path class="cls-2" d="M202.33,237.16a3.55,3.55,0,0,1-3.63-3.62,3.91,3.91,0,0,1,3.67-3.72,3.85,3.85,0,0,1,3.68,3.82A3.52,3.52,0,0,1,202.33,237.16Z" transform="translate(7.92 -0.24)"/><path class="cls-2" d="M173.48,257.51l-1.94.48-1.76.44a3.24,3.24,0,0,1-.3-3.5c.46-1.1,1.13-2.12,2.65-1.7a1.08,1.08,0,0,0,.55-.07,3.08,3.08,0,0,1,4.07,2,4,4,0,0,1-1.8,4.72c-.93.45-1.34,0-1.46-.83A12,12,0,0,1,173.48,257.51Z" transform="translate(7.92 -0.24)"/><path class="cls-2" d="M214.31,251.63a2.91,2.91,0,0,1-3.14-2.86,3.87,3.87,0,0,1,3.54-3.68,3.72,3.72,0,0,1,3.67,3.52C218.41,250.59,217.09,251.57,214.31,251.63Z" transform="translate(7.92 -0.24)"/><path class="cls-2" d="M281.15,251.61a3,3,0,0,1-2.82-2.8,3.1,3.1,0,0,1,2.82-2.85A3,3,0,0,1,284,248.9,2.74,2.74,0,0,1,281.15,251.61Z" transform="translate(7.92 -0.24)"/><text class="cls-3" transform="translate(558.86 229.39) scale(1.04 1)">Executive<tspan x="0" y="147">FollowUp</tspan></text></svg>