<svg id="efulogo_Image" data-name="efulogo Image" xmlns="http://www.w3.org/2000/svg" viewBox="0 0 399.29 398.88"><defs><style>.cls-1{fill:none;}.cls-2{fill:#e7c352;}.cls-3{fill:#fff;}</style></defs><title>efulogoNew2</title><path class="cls-1" d="M215.4,415.49a242.26,242.26,0,0,1-26.65-1.87,195.3,195.3,0,0,1-39.65-9.49c-6.44-2.32-12.76-5-19-7.74A177.29,177.29,0,0,1,99.83,379c-4.89-3.46-9.6-7.19-14.24-11-3.48-2.85-6.81-5.89-10-9A164.13,164.13,0,0,1,64.2,347c-5-6.07-9.87-12.35-14.46-18.78a173,173,0,0,1-15.59-27.06,189.59,189.59,0,0,1-14.51-42.39c-1.51-7.28-2.64-14.65-3.74-22-.52-3.49-.61-7.06-.81-10.6-.2-3.78-.5-7.58-.38-11.36.18-5.89.6-11.78,1.07-17.66a184.51,184.51,0,0,1,6-33,194.48,194.48,0,0,1,8.64-25,199.21,199.21,0,0,1,17.86-33.29A179.23,179.23,0,0,1,62.13,87.44c2.8-3.21,5.6-6.43,8.56-9.49C74,74.49,77.42,71,81.07,67.87c5.11-4.4,10.37-8.66,15.79-12.69A188.28,188.28,0,0,1,128,36.51,182,182,0,0,1,161.67,24q11.21-2.85,22.61-4.92a144.55,144.55,0,0,1,15.55-1.8c5.57-.41,11.17-.71,16.74-.64a192.54,192.54,0,0,1,25.26,2,202.51,202.51,0,0,1,71.31,24.46A200,200,0,0,1,337.2,59.17c3.85,3,7.54,6.22,11.2,9.47A106.85,106.85,0,0,1,357,76.8q7.53,8.31,14.66,17a147.81,147.81,0,0,1,14.88,22c3.61,6.45,7,13,10,19.8,2.89,6.46,5.36,13.12,7.65,19.82a176.4,176.4,0,0,1,7,28.5,168.59,168.59,0,0,1,2.4,21.85c.14,4.15.46,8.3.37,12.44a201.76,201.76,0,0,1-2,25.38A207.11,207.11,0,0,1,403,280.29a203.1,203.1,0,0,1-12.87,29.53,192.65,192.65,0,0,1-17.81,27.62c-3.26,4.21-6.75,8.25-10.28,12.24-2.82,3.2-5.75,6.33-8.82,9.28a204.46,204.46,0,0,1-22.76,18.86,199.68,199.68,0,0,1-30.17,17.81,190.1,190.1,0,0,1-35.95,13.13c-6.06,1.51-12.16,2.89-18.31,3.94-5.65,1-11.38,1.53-17.09,2.05C224.09,415.18,219.17,415.29,215.4,415.49Zm67.93-80.4c.36-.33.66-.58.94-.85Q305.91,312.6,327.56,291c.85-.84.77-1.32,0-2.11-11-10.91-22-21.77-32.35-33.25a73.25,73.25,0,0,0-8.6-8.48,41.61,41.61,0,0,0-27-9c-5.24,0-10.48,0-15.72,0q-31.48,0-63,0c-1.16,0-1.6.38-1.54,1.5a53.88,53.88,0,0,0,.28,6,15.91,15.91,0,0,0,10.25,12.81,33,33,0,0,0,12.76,2.11h36.11c1.62,0,2.29,1,1.57,2.49a4,4,0,0,1-1.23,1.57,13,13,0,0,1-7.43,2.62q-32.81,0-65.63,0a20.76,20.76,0,0,1-15-6.11c-4.36-4.22-8.68-8.49-13-12.76-3.75-3.71-7.47-7.45-11.24-11.15a32.36,32.36,0,0,0-4-3.61,23.59,23.59,0,0,0-19.35-3.79,30.08,30.08,0,0,0-12,6c.25.32.44.57.64.81,2.48,2.81,5,5.62,7.43,8.44q7.22,8.23,14.4,16.48L123,271.84l13.15,15c2.52,2.88,5,5.81,7.55,8.65,3.32,3.66,6.46,7.52,10.13,10.8a28.94,28.94,0,0,0,19.43,7.52c24.92.11,49.83,0,74.75.07a42.43,42.43,0,0,1,6.07.45,29.31,29.31,0,0,1,16.82,8.35c3.84,3.8,7.64,7.63,11.46,11.45C282.64,334.46,283,334.75,283.33,335.09Zm-87.2-185.81.36-.13c0-.38,0-.76,0-1.14-.14-2.71-.21-5.42-.45-8.12-.51-5.63-.92-11.28-1.71-16.87a72.3,72.3,0,0,0-8.52-25.8,60,60,0,0,0-15.05-17.59,81.91,81.91,0,0,0-17.88-10.69,144.23,144.23,0,0,0-27.37-8.68c-4.22-.95-8.45-1.94-12.55-3.29s-7.83.28-8.48,4.45c-.92,6-1.74,12-2.08,18A106.52,106.52,0,0,0,103.68,104a73.47,73.47,0,0,0,8.63,24.66,54.54,54.54,0,0,0,12.49,14.81,58.93,58.93,0,0,0,14.88,8.95,64.31,64.31,0,0,0,16.47,4.73c5,.67,10.13,1.1,15.19,1.69,4.27.5,8.25,1.74,11.48,4.76.7.66,1.45,1.26,2.18,1.89l.3-.15c-.22-.85-.38-1.72-.68-2.54-2.56-7-5-14.1-7.77-21a159.79,159.79,0,0,0-14.5-27.66,113.87,113.87,0,0,0-12.12-15.94c-3.57-3.8-7.35-7.4-11-11.07-.76-.76-1.6-1.45-2.4-2.18l.31-.29A182.42,182.42,0,0,1,196.13,149.28Zm-68.65,69.89a34.89,34.89,0,0,1,8.76,6.72Q148.57,238.06,161,250.2a11.16,11.16,0,0,0,2.26,1.74,3,3,0,0,0,2.78.32,34.53,34.53,0,0,1-1.27-14.77c.6-4.22,1.65-8.36,2.39-12.56.22-1.25.7-1.55,1.93-1.55q45.35,0,90.7.06c3.14,0,6.28.43,9.42.67.65,0,1.29.14,2.28.25l-3-4.87c4.19-4.69,2.2-11.93-2.63-14.75a2.45,2.45,0,0,1-1.32-2.26,12.24,12.24,0,0,0-10.23-11,2.58,2.58,0,0,1-1.82-1.14c-4.53-6.05-10.37-9.7-18.17-9.66a2.72,2.72,0,0,1-1.72-.75A15.08,15.08,0,0,0,216,177.05a2.81,2.81,0,0,1-1.79,0c-5.76-1.8-11.43-2.06-16.94.91a1.2,1.2,0,0,1-1,0,21.33,21.33,0,0,0-12.85-1.73,18.22,18.22,0,0,0-10.35,4.85,3.62,3.62,0,0,1-2.82,1.16A17.23,17.23,0,0,0,157,188a2.13,2.13,0,0,1-1.51.63,19.36,19.36,0,0,0-12.1,3c-4.25,2.64-7.41,6.17-8.4,11.28a2.72,2.72,0,0,1-.69,1.16c-1,1.12-2.2,2.11-3.11,3.31-1.66,2.2-3,4.68-2.59,7.5C128.77,216.51,129.08,217.89,127.48,219.17Zm83.32-55.1.39.31a4.42,4.42,0,0,0,.6-.34,15.29,15.29,0,0,1,8.34-3.54c3.85-.26,7.73-.41,11.59-.42a69.61,69.61,0,0,0,16.58-2c10.55-2.59,19.77-7.41,27-15.76a51,51,0,0,0,9.31-16.13c4.33-11.9,5-24.22,4-36.69-.33-4.35-3.29-6.25-7.54-5.22-1.89.46-3.81.86-5.73,1.13-5.4.77-10.83,1.3-16.21,2.21A84.6,84.6,0,0,0,231,97.22a50.77,50.77,0,0,0-14.47,12A54,54,0,0,0,206,130.68c-1.27,5.17-2.12,10.44-3.11,15.68-.27,1.4-.35,2.84-.52,4.27l.41.21a142.36,142.36,0,0,1,24.64-26.32A145,145,0,0,1,257.68,105C235.55,119.57,221.4,140.42,210.8,164.07ZM315.62,375.59a10.62,10.62,0,0,0,7.52-3.17q22.35-22.35,44.71-44.72a10.26,10.26,0,0,0,.36-14.57q-8.19-8.52-16.73-16.7a10.21,10.21,0,0,0-14.54.36l-44.63,44.63a10.38,10.38,0,0,0-.07,15.09q8,8,16,16A10.51,10.51,0,0,0,315.62,375.59Z" transform="translate(-14.68 -16.61)"/><path class="cls-2" d="M283.33,335.09c-.37-.34-.69-.63-1-.93-3.82-3.82-7.62-7.65-11.46-11.45a29.31,29.31,0,0,0-16.82-8.35,42.43,42.43,0,0,0-6.07-.45c-24.92,0-49.83,0-74.75-.07a28.94,28.94,0,0,1-19.43-7.52c-3.67-3.28-6.81-7.14-10.13-10.8-2.57-2.84-5-5.77-7.55-8.65l-13.15-15L113.9,261.5q-7.2-8.24-14.4-16.48c-2.46-2.82-5-5.63-7.43-8.44-.2-.24-.39-.49-.64-.81a30.08,30.08,0,0,1,12-6,23.59,23.59,0,0,1,19.35,3.79,32.36,32.36,0,0,1,4,3.61c3.77,3.7,7.49,7.44,11.24,11.15,4.33,4.27,8.65,8.54,13,12.76a20.76,20.76,0,0,0,15,6.11q32.82-.06,65.63,0a13,13,0,0,0,7.43-2.62,4,4,0,0,0,1.23-1.57c.72-1.48.05-2.49-1.57-2.49H202.61a33,33,0,0,1-12.76-2.11,15.91,15.91,0,0,1-10.25-12.81,53.88,53.88,0,0,1-.28-6c-.06-1.12.38-1.5,1.54-1.5q31.5.06,63,0c5.24,0,10.48,0,15.72,0a41.61,41.61,0,0,1,27,9,73.25,73.25,0,0,1,8.6,8.48c10.38,11.48,21.39,22.34,32.35,33.25.8.79.88,1.27,0,2.11q-21.68,21.6-43.29,43.26C284,334.51,283.69,334.76,283.33,335.09Z" transform="translate(-14.68 -16.61)"/><path class="cls-2" d="M196.13,149.28a182.42,182.42,0,0,0-59-64.66l-.31.29c.8.73,1.64,1.42,2.4,2.18,3.7,3.67,7.48,7.27,11,11.07a113.87,113.87,0,0,1,12.12,15.94,159.79,159.79,0,0,1,14.5,27.66c2.77,6.94,5.21,14,7.77,21,.3.82.46,1.69.68,2.54l-.3.15c-.73-.63-1.48-1.23-2.18-1.89-3.23-3-7.21-4.26-11.48-4.76-5.06-.59-10.14-1-15.19-1.69a64.31,64.31,0,0,1-16.47-4.73,58.93,58.93,0,0,1-14.88-8.95,54.54,54.54,0,0,1-12.49-14.81A73.47,73.47,0,0,1,103.68,104a106.52,106.52,0,0,1-1.28-24.57c.34-6,1.16-12,2.08-18,.65-4.17,4.44-5.79,8.48-4.45s8.33,2.34,12.55,3.29a144.23,144.23,0,0,1,27.37,8.68,81.91,81.91,0,0,1,17.88,10.69,60,60,0,0,1,15.05,17.59,72.3,72.3,0,0,1,8.52,25.8c.79,5.59,1.2,11.24,1.71,16.87.24,2.7.31,5.41.45,8.12,0,.38,0,.76,0,1.14Z" transform="translate(-14.68 -16.61)"/><path class="cls-2" d="M127.48,219.17c1.6-1.28,1.29-2.66,1.07-4.27-.4-2.82.93-5.3,2.59-7.5.91-1.2,2.09-2.19,3.11-3.31a2.72,2.72,0,0,0,.69-1.16c1-5.11,4.15-8.64,8.4-11.28a19.36,19.36,0,0,1,12.1-3A2.13,2.13,0,0,0,157,188a17.23,17.23,0,0,1,13.31-5.77,3.62,3.62,0,0,0,2.82-1.16,18.22,18.22,0,0,1,10.35-4.85,21.33,21.33,0,0,1,12.85,1.73,1.2,1.2,0,0,0,1,0c5.51-3,11.18-2.71,16.94-.91a2.81,2.81,0,0,0,1.79,0A15.08,15.08,0,0,1,232.54,180a2.72,2.72,0,0,0,1.72.75c7.8,0,13.64,3.61,18.17,9.66a2.58,2.58,0,0,0,1.82,1.14,12.24,12.24,0,0,1,10.23,11,2.45,2.45,0,0,0,1.32,2.26c4.83,2.82,6.82,10.06,2.63,14.75l3,4.87c-1-.11-1.63-.2-2.28-.25-3.14-.24-6.28-.67-9.42-.67q-45.35-.08-90.7-.06c-1.23,0-1.71.3-1.93,1.55-.74,4.2-1.79,8.34-2.39,12.56A34.53,34.53,0,0,0,166,252.26a3,3,0,0,1-2.78-.32A11.16,11.16,0,0,1,161,250.2q-12.37-12.13-24.71-24.31A34.89,34.89,0,0,0,127.48,219.17Zm74.36-26.3a4,4,0,1,0,4-4A4.12,4.12,0,0,0,201.84,192.87ZM222,205.68a3.47,3.47,0,0,0-3.35,3.34,3.36,3.36,0,1,0,6.71,0A3.46,3.46,0,0,0,222,205.68Zm-43.69-4.79a3,3,0,0,0,3.14-3,3.25,3.25,0,0,0-3.11-3.24,3.31,3.31,0,0,0-3.11,3.15A3,3,0,0,0,178.3,200.89Zm-24.44,17.23a10.23,10.23,0,0,0,0,1.27c.1.73.45,1.09,1.23.71a3.42,3.42,0,0,0,1.53-4,2.61,2.61,0,0,0-3.45-1.66.84.84,0,0,1-.46.07c-1.29-.36-1.86.51-2.25,1.43a2.77,2.77,0,0,0,.26,3l1.49-.37Zm34.58-5c2.36,0,3.47-.88,3.45-2.55a3.15,3.15,0,0,0-3.11-3,3.29,3.29,0,0,0-3,3.12A2.46,2.46,0,0,0,188.44,213.14Zm56.61,0a2.32,2.32,0,0,0,2.39-2.3,2.51,2.51,0,0,0-2.39-2.48,2.63,2.63,0,0,0-2.39,2.41A2.51,2.51,0,0,0,245.05,213.12Z" transform="translate(-14.68 -16.61)"/><path class="cls-2" d="M210.8,164.07c10.6-23.65,24.75-44.5,46.88-59.12a145,145,0,0,0-30.24,19.57,142.36,142.36,0,0,0-24.64,26.32l-.41-.21c.17-1.43.25-2.87.52-4.27,1-5.24,1.84-10.51,3.11-15.68a54,54,0,0,1,10.52-21.5,50.77,50.77,0,0,1,14.47-12,84.6,84.6,0,0,1,28.11-9.56c5.38-.91,10.81-1.44,16.21-2.21,1.92-.27,3.84-.67,5.73-1.13,4.25-1,7.21.87,7.54,5.22.95,12.47.31,24.79-4,36.69a51,51,0,0,1-9.31,16.13c-7.2,8.35-16.42,13.17-27,15.76a69.61,69.61,0,0,1-16.58,2c-3.86,0-7.74.16-11.59.42a15.29,15.29,0,0,0-8.34,3.54,4.42,4.42,0,0,1-.6.34Z" transform="translate(-14.68 -16.61)"/><path class="cls-2" d="M315.62,375.59a10.51,10.51,0,0,1-7.35-3q-8-8-16-16a10.38,10.38,0,0,1,.07-15.09l44.63-44.63a10.21,10.21,0,0,1,14.54-.36q8.53,8.18,16.73,16.7a10.26,10.26,0,0,1-.36,14.57q-22.34,22.38-44.71,44.72A10.62,10.62,0,0,1,315.62,375.59Z" transform="translate(-14.68 -16.61)"/><path class="cls-1" d="M201.84,192.87a4.09,4.09,0,0,1,4-4,4,4,0,1,1-4,4Z" transform="translate(-14.68 -16.61)"/><path class="cls-3" d="M222,205.68a3.46,3.46,0,0,1,3.36,3.33,3.36,3.36,0,1,1-6.71,0A3.47,3.47,0,0,1,222,205.68Z" transform="translate(-14.68 -16.61)"/><path class="cls-3" d="M178.3,200.89a3,3,0,0,1-3.08-3.07,3.31,3.31,0,0,1,3.11-3.15,3.25,3.25,0,0,1,3.11,3.24A3,3,0,0,1,178.3,200.89Z" transform="translate(-14.68 -16.61)"/><path class="cls-3" d="M153.86,218.12l-1.64.41-1.49.37a2.77,2.77,0,0,1-.26-3c.39-.92,1-1.79,2.25-1.43a.84.84,0,0,0,.46-.07,2.61,2.61,0,0,1,3.45,1.66,3.42,3.42,0,0,1-1.53,4c-.78.38-1.13,0-1.23-.71A10.23,10.23,0,0,1,153.86,218.12Z" transform="translate(-14.68 -16.61)"/><path class="cls-3" d="M188.44,213.14a2.46,2.46,0,0,1-2.66-2.42,3.29,3.29,0,0,1,3-3.12,3.15,3.15,0,0,1,3.11,3C191.91,212.26,190.8,213.09,188.44,213.14Z" transform="translate(-14.68 -16.61)"/><path class="cls-3" d="M245.05,213.12a2.51,2.51,0,0,1-2.39-2.37,2.63,2.63,0,0,1,2.39-2.41,2.51,2.51,0,0,1,2.39,2.48A2.32,2.32,0,0,1,245.05,213.12Z" transform="translate(-14.68 -16.61)"/></svg>