<svg id="efulogo_Image" data-name="efulogo Image" xmlns="http://www.w3.org/2000/svg" viewBox="0 0 431.09 475"><defs><style>.cls-1{fill:#e6c252;}</style></defs><title>system</title><path class="cls-1" d="M296.2,46.49a56.94,56.94,0,0,1-2.9,17.93A192.69,192.69,0,0,1,372,110a56.65,56.65,0,0,1,14.14-11.54c.57-.34,1.17-.63,1.75-.94a212.81,212.81,0,0,0-91.77-53.13C296.17,45.08,296.2,45.78,296.2,46.49Z" transform="translate(-20.92 -9.2)"/><path class="cls-1" d="M90.24,97.5c.58.31,1.18.6,1.75.93A56.73,56.73,0,0,1,106.13,110a192.69,192.69,0,0,1,78.73-45.56A56.94,56.94,0,0,1,182,46.49c0-.71,0-1.41.06-2.12A212.85,212.85,0,0,0,90.24,97.5Z" transform="translate(-20.92 -9.2)"/><path class="cls-1" d="M51.85,294.8a192.92,192.92,0,0,1,0-91,57.22,57.22,0,0,1-17-6.45c-.62-.36-1.22-.74-1.82-1.11a213.37,213.37,0,0,0,0,106.1c.6-.37,1.2-.75,1.82-1.11A57.22,57.22,0,0,1,51.85,294.8Z" transform="translate(-20.92 -9.2)"/><path class="cls-1" d="M182,452.13a56.83,56.83,0,0,1,2.9-17.92,192.82,192.82,0,0,1-78.71-45.55A57.57,57.57,0,0,1,92,400.19c-.57.33-1.17.62-1.75.94A212.93,212.93,0,0,0,182,454.25C182,453.54,182,452.84,182,452.13Z" transform="translate(-20.92 -9.2)"/><path class="cls-1" d="M387.93,401.12c-.59-.31-1.18-.6-1.76-.93A57.57,57.57,0,0,1,372,388.66a192.82,192.82,0,0,1-78.71,45.55,56.83,56.83,0,0,1,2.9,17.92c0,.71,0,1.41-.05,2.12A212.91,212.91,0,0,0,387.93,401.12Z" transform="translate(-20.92 -9.2)"/><path class="cls-1" d="M445.11,196.26c-.61.37-1.21.75-1.82,1.11a57.38,57.38,0,0,1-17,6.45,192.74,192.74,0,0,1,0,91,57.43,57.43,0,0,1,17,6.45c.61.36,1.21.74,1.81,1.11a213.53,213.53,0,0,0,0-106.1Z" transform="translate(-20.92 -9.2)"/><path class="cls-1" d="M291,251.13l20-1a71.53,71.53,0,0,0-5.44-28.24l-19,6.49-4.76-7.22-4.76-7.21L290.48,199a71.44,71.44,0,0,0-23.81-16.12l-8.83,18-8.47-1.74-8.47-1.73-1-20a71.71,71.71,0,0,0-28.24,5.44l6.49,19-7.22,4.75-7.21,4.76L188.8,197.91a71.38,71.38,0,0,0-16.12,23.82l18,8.83L188.94,239l-1.73,8.47-20,1a71.68,71.68,0,0,0,5.44,28.24l19-6.49,4.75,7.22,4.76,7.22-13.43,14.88a71.38,71.38,0,0,0,23.82,16.12l8.83-18,8.46,1.74,8.47,1.73,1,20a71.5,71.5,0,0,0,28.24-5.44l-6.49-19,7.22-4.76,7.21-4.76,14.89,13.43a71.44,71.44,0,0,0,16.12-23.81l-18-8.83,1.74-8.47Zm-45.44,31.28a33.72,33.72,0,1,1,26.67-39.53A33.72,33.72,0,0,1,245.51,282.41Z" transform="translate(-20.92 -9.2)"/><path class="cls-1" d="M340.18,207.62l-7.05-17.08,17.59-13.23a133.53,133.53,0,0,0-39.29-39.43l-13.29,17.56-17.06-7.1L264,141.25l3.09-21.85a132,132,0,0,0-55.69-.1l3,21.87-17.07,7.05-17.08,7-13.23-17.59A133.44,133.44,0,0,0,127.65,177l17.56,13.28-7.1,17.06L131,224.36l-21.85-3.09a132,132,0,0,0-.1,55.69l21.87-3L138,291l7,17.08-17.59,13.23a133.44,133.44,0,0,0,39.3,39.43L180,343.18l17.06,7.1,17,7.09L211,379.22a132,132,0,0,0,55.69.1l-3-21.87,17.07-7,17.08-7.05L311.08,361a133.53,133.53,0,0,0,39.43-39.29L333,308.37l7.1-17.06,7.09-17.05L369,277.35a132,132,0,0,0,.1-55.69l-21.87,3Zm-101.1,124a82.26,82.26,0,1,1,82.26-82.26A82.26,82.26,0,0,1,239.08,331.57Z" transform="translate(-20.92 -9.2)"/><path class="cls-1" d="M241.69,262.75a13.69,13.69,0,1,1,10.83-16.05A13.7,13.7,0,0,1,241.69,262.75Z" transform="translate(-20.92 -9.2)"/><path class="cls-1" d="M437.66,133.81l8.36-6.18A36.88,36.88,0,0,0,435.57,117l-6.34,8.24-4.12-1.75L421,121.72l1.54-10.28a37,37,0,0,0-14.92-.14L409,121.61l-4.16,1.68L400.64,125l-6.19-8.36a37,37,0,0,0-10.64,10.45l8.24,6.34-1.75,4.12-1.75,4.13-10.29-1.54a37.09,37.09,0,0,0-.13,14.91l10.31-1.34,1.67,4.16,1.68,4.15-8.36,6.19a37.26,37.26,0,0,0,10.45,10.64l6.34-8.24,4.13,1.75,4.12,1.75-1.53,10.29a37.09,37.09,0,0,0,14.91.13l-1.35-10.31,4.16-1.68,4.16-1.67,6.18,8.35a37,37,0,0,0,10.64-10.44l-8.24-6.34,1.75-4.13,1.76-4.12,10.28,1.53a37.09,37.09,0,0,0,.14-14.91L441,142.13,439.34,138Zm-15.77,21.37a10.21,10.21,0,1,1,.11-14.44A10.21,10.21,0,0,1,421.89,155.18Z" transform="translate(-20.92 -9.2)"/><path class="cls-1" d="M262,32.4l8.35-6.18a36.88,36.88,0,0,0-10.45-10.64l-6.33,8.24-4.13-1.75-4.12-1.76L246.87,10A37.09,37.09,0,0,0,232,9.89l1.35,10.31-4.16,1.68L225,23.56,218.8,15.2a37.13,37.13,0,0,0-10.64,10.45L216.41,32l-1.76,4.12-1.75,4.13L202.62,38.7a36.91,36.91,0,0,0-.14,14.91l10.31-1.34,1.68,4.16,1.68,4.15-8.36,6.19a37.13,37.13,0,0,0,10.45,10.64l6.33-8.24,4.13,1.75,4.13,1.75L231.29,83a37.09,37.09,0,0,0,14.91.13l-1.34-10.31L249,71.11l4.16-1.68,6.19,8.35A37.22,37.22,0,0,0,270,67.34L261.75,61l1.76-4.13,1.75-4.12,10.29,1.53a37.09,37.09,0,0,0,.13-14.91l-10.31,1.35-1.68-4.16ZM246.25,53.77a10.21,10.21,0,1,1,.11-14.44A10.22,10.22,0,0,1,246.25,53.77Z" transform="translate(-20.92 -9.2)"/><path class="cls-1" d="M263.69,456.84l1.68-4.15L275.68,454a37.09,37.09,0,0,0-.13-14.91l-10.29,1.54-1.75-4.13-1.76-4.13,8.25-6.33a37.13,37.13,0,0,0-10.64-10.45L253.17,424,249,422.3l-4.15-1.68,1.34-10.31a37.09,37.09,0,0,0-14.91.13l1.54,10.29-4.13,1.75-4.13,1.76L218.24,416a37.13,37.13,0,0,0-10.45,10.64l8.36,6.19L214.47,437l-1.68,4.15-10.31-1.34a36.91,36.91,0,0,0,.14,14.91l10.28-1.54,1.75,4.13,1.76,4.13-8.25,6.33A37.13,37.13,0,0,0,218.8,478.2l6.19-8.36,4.16,1.68,4.16,1.68L232,483.51a36.91,36.91,0,0,0,14.91-.14l-1.53-10.28,4.12-1.75,4.13-1.76,6.33,8.25a37.13,37.13,0,0,0,10.45-10.64L262,461Zm-17.33-2.76a10.22,10.22,0,1,1-.11-14.45A10.24,10.24,0,0,1,246.36,454.08Z" transform="translate(-20.92 -9.2)"/><path class="cls-1" d="M437.66,336.64l8.36-6.19a36.88,36.88,0,0,0-10.45-10.64l-6.34,8.24-4.12-1.75L421,324.54l1.54-10.28a37.14,37.14,0,0,0-14.92-.13l1.35,10.3-4.16,1.68-4.15,1.68-6.19-8.36a37.26,37.26,0,0,0-10.64,10.45l8.24,6.34-1.75,4.12-1.75,4.13-10.29-1.53a37.09,37.09,0,0,0-.13,14.91l10.31-1.35,1.67,4.16,1.68,4.15L383.43,371a37,37,0,0,0,10.45,10.64l6.34-8.24,4.13,1.75,4.12,1.76-1.53,10.28a37.27,37.27,0,0,0,14.91.14L420.5,377l4.16-1.68,4.16-1.68L435,382a37,37,0,0,0,10.64-10.45l-8.24-6.34,1.75-4.12,1.76-4.13,10.28,1.53a37.09,37.09,0,0,0,.14-14.91L441,345l-1.68-4.16ZM421.89,358a10.21,10.21,0,1,1,.11-14.44A10.21,10.21,0,0,1,421.89,358Z" transform="translate(-20.92 -9.2)"/><path class="cls-1" d="M33.6,138l-1.67,4.16-10.31-1.35a37.09,37.09,0,0,0,.13,14.91L32,154.16l1.75,4.12,1.75,4.13-8.24,6.34a37.1,37.1,0,0,0,10.64,10.44l6.19-8.35,4.15,1.67,4.16,1.68L51.09,184.5A37.09,37.09,0,0,0,66,184.37l-1.53-10.29,4.13-1.75,4.12-1.75,6.34,8.24a37.13,37.13,0,0,0,10.45-10.64L81.15,162l1.68-4.15,1.68-4.16L94.82,155a37.27,37.27,0,0,0-.14-14.91L84.4,141.65l-1.76-4.13-1.75-4.12,8.24-6.34a36.88,36.88,0,0,0-10.64-10.45L72.31,125l-4.16-1.68L64,121.61l1.35-10.31a36.91,36.91,0,0,0-14.91.14L52,121.72l-4.12,1.76-4.13,1.75L37.37,117a37,37,0,0,0-10.45,10.64l8.36,6.18Zm17.34,2.77a10.21,10.21,0,1,1,.11,14.44A10.21,10.21,0,0,1,50.94,140.74Z" transform="translate(-20.92 -9.2)"/><path class="cls-1" d="M33.6,340.79,31.93,345,21.62,343.6a37.09,37.09,0,0,0,.13,14.91L32,357l1.76,4.13,1.75,4.12-8.24,6.34A37.13,37.13,0,0,0,37.94,382l6.19-8.36,4.15,1.68L52.44,377l-1.35,10.31A37.27,37.27,0,0,0,66,387.19l-1.53-10.28,4.13-1.76,4.12-1.75,6.34,8.24A36.88,36.88,0,0,0,89.51,371l-8.36-6.19,1.68-4.15,1.68-4.16,10.31,1.35a37.27,37.27,0,0,0-.14-14.91L84.4,344.47l-1.76-4.13-1.75-4.12,8.24-6.34a37,37,0,0,0-10.64-10.45l-6.18,8.36-4.16-1.68L64,324.43l1.35-10.3a37.09,37.09,0,0,0-14.91.13L52,324.54l-4.12,1.76-4.13,1.75-6.34-8.24a37,37,0,0,0-10.45,10.64l8.36,6.19Zm17.34,2.77A10.21,10.21,0,1,1,51.05,358,10.21,10.21,0,0,1,50.94,343.56Z" transform="translate(-20.92 -9.2)"/></svg>