<svg id="Layer_1" data-name="Layer 1" xmlns="http://www.w3.org/2000/svg" viewBox="0 0 75.23 77.16"><defs><style>.cls-1{fill:#e7c452;}</style></defs><title>timeandplan</title><rect class="cls-1" x="35.57" y="6.84" width="4.97" height="7.46" rx="1.79"/><path class="cls-1" d="M61.35,30.16A1.8,1.8,0,0,0,62.71,30L66.08,28a1.79,1.79,0,0,0,.65-2.44L66,24.39A1.74,1.74,0,0,0,65,23.56a1.8,1.8,0,0,0-1.36.18l-3.37,1.94a1.79,1.79,0,0,0-.65,2.44l.7,1.21A1.74,1.74,0,0,0,61.35,30.16Z" transform="translate(-1.88 -2.83)"/><path class="cls-1" d="M34.75,40.15h9.93L53.58,35a1.78,1.78,0,0,0,.65-2.44l-.69-1.2a1.78,1.78,0,0,0-1.55-.9,1.8,1.8,0,0,0-.89.24L41,36.52,33.61,23.66a1.79,1.79,0,0,0-1.09-.83,1.47,1.47,0,0,0-.46-.07,1.85,1.85,0,0,0-.89.24L30,23.7a1.8,1.8,0,0,0-.66,2.44l7.24,12.53a3.69,3.69,0,0,0-.19.56Z" transform="translate(-1.88 -2.83)"/><path class="cls-1" d="M70.26,39.45a1.79,1.79,0,0,0-1.79-1.78H64.58a1.79,1.79,0,0,0-1.79,1.78v.7h7.47Z" transform="translate(-1.88 -2.83)"/><path class="cls-1" d="M26.1,20.52a1.82,1.82,0,0,0,.46.06,1.75,1.75,0,0,0,.89-.24l1.21-.7a1.77,1.77,0,0,0,.66-2.43l-1.95-3.37a1.78,1.78,0,0,0-1.55-.9,1.8,1.8,0,0,0-.89.24l-1.21.7A1.77,1.77,0,0,0,22.89,15a1.79,1.79,0,0,0,.18,1.36L25,19.69A1.79,1.79,0,0,0,26.1,20.52Z" transform="translate(-1.88 -2.83)"/><path class="cls-1" d="M6.88,40.15h0a32.89,32.89,0,0,1,65.77,0H77.1a37.34,37.34,0,0,0-74.67,0H6.88Z" transform="translate(-1.88 -2.83)"/><path class="cls-1" d="M9.27,39.62v.53h7.47v-.53A1.79,1.79,0,0,0,15,37.84H11.06A1.79,1.79,0,0,0,9.27,39.62Z" transform="translate(-1.88 -2.83)"/><path class="cls-1" d="M55.87,14.06l-1.21-.7a1.78,1.78,0,0,0-.9-.24,1.77,1.77,0,0,0-1.54.89l-1.95,3.37a1.78,1.78,0,0,0,.66,2.44l1.2.7a1.8,1.8,0,0,0,1.36.18,1.74,1.74,0,0,0,1.08-.83l2-3.37A1.79,1.79,0,0,0,55.87,14.06Z" transform="translate(-1.88 -2.83)"/><path class="cls-1" d="M19.31,25.35l-3.37-2a1.84,1.84,0,0,0-.9-.24,1.77,1.77,0,0,0-1.54.9l-.7,1.2a1.79,1.79,0,0,0-.18,1.36,1.74,1.74,0,0,0,.83,1.08l3.37,1.95a1.8,1.8,0,0,0,.89.24,1.78,1.78,0,0,0,1.55-.9l.7-1.2a1.79,1.79,0,0,0,.18-1.36A1.77,1.77,0,0,0,19.31,25.35Z" transform="translate(-1.88 -2.83)"/><path class="cls-1" d="M32,52.46l-3.93-1.93.38-1.84.38-1.85,4.37-.22a15.77,15.77,0,0,0-.2-2.56H23.45a6.36,6.36,0,1,1-11.78,0h-5l0,.14-.38,1.85-4.36.22a15.55,15.55,0,0,0,1.18,6.16L7.2,51l1,1.57,1,1.57L6.35,57.41a15.44,15.44,0,0,0,5.19,3.51L13.47,57l1.84.38,1.85.37.22,4.37a15.56,15.56,0,0,0,6.16-1.19L22.13,56.8l1.57-1,1.57-1,3.25,2.93A15.61,15.61,0,0,0,32,52.46Z" transform="translate(-1.88 -2.83)"/><path class="cls-1" d="M46.32,68.45l0-1.38,3.09-.88A11.43,11.43,0,0,0,47.51,62l-2.73,1.69-1-1-1-1L44.34,59a11.33,11.33,0,0,0-4.29-1.66l-.74,3.12-1.38,0-1.38,0-.88-3.09a11.52,11.52,0,0,0-4.21,1.86L33.15,62l-1,1-.95,1-2.81-1.56a11.67,11.67,0,0,0-1.66,4.29l3.13.73,0,1.39,0,1.38-3.08.88a11.43,11.43,0,0,0,1.86,4.21l2.73-1.69,1,.95,1,1-1.56,2.8A11.43,11.43,0,0,0,36.2,80l.73-3.12,1.39,0,1.38,0,.88,3.09A11.59,11.59,0,0,0,44.79,78L43.1,75.3l.95-1,1-1,2.8,1.56a11.33,11.33,0,0,0,1.66-4.29l-3.12-.74Zm-3.84,1.87a4.67,4.67,0,1,1-2.68-6A4.66,4.66,0,0,1,42.48,70.32Z" transform="translate(-1.88 -2.83)"/><path class="cls-1" d="M40.06,44.06l-4.82,3.63a24.94,24.94,0,0,0,7.08,7.1l4.23-5.57,2.78,1.15,2.79,1.16-1,6.93a24.91,24.91,0,0,0,10,0l-1-6.93L63,50.39l2.79-1.15L70,54.83a24.94,24.94,0,0,0,7.1-7.08l-4.88-3.69Z" transform="translate(-1.88 -2.83)"/><path class="cls-1" d="M64.22,67.61l0-.85,1.89-.54A7.1,7.1,0,0,0,65,63.65l-1.67,1-.62-.58-.61-.59,1-1.71a7,7,0,0,0-2.63-1l-.45,1.91-.85,0-.84,0-.54-1.89A7.07,7.07,0,0,0,55.12,62l1,1.67-.59.61-.58.62-1.72-1a7.15,7.15,0,0,0-1,2.63l1.92.45,0,.84,0,.85-1.89.54a7,7,0,0,0,1.14,2.58l1.67-1,.61.58.61.59-1,1.72a7,7,0,0,0,2.63,1l.44-1.91.85,0,.85,0,.54,1.89a7.1,7.1,0,0,0,2.57-1.14l-1-1.67.58-.61.59-.62,1.71,1a6.85,6.85,0,0,0,1-2.63l-1.91-.45Zm-2.35,1.14a2.86,2.86,0,1,1-1.64-3.69A2.86,2.86,0,0,1,61.87,68.75Z" transform="translate(-1.88 -2.83)"/></svg>